<svg xmlns="http://www.w3.org/2000/svg">
  <symbol id="test">
  </symbol>
  <symbol id="icon-search" width="20" height="20" viewBox="0 0 20 20">
    <path d="M16.5833 17.4785L11.1042 11.9993C10.6875 12.3605 10.2014 12.6417 9.64583 12.8431C9.09028 13.0445 8.5 13.1452 7.875 13.1452C6.375 13.1452 5.10417 12.6243 4.0625 11.5827C3.02083 10.541 2.5 9.28407 2.5 7.81185C2.5 6.33963 3.02083 5.08268 4.0625 4.04102C5.10417 2.99935 6.36806 2.47852 7.85417 2.47852C9.32639 2.47852 10.5799 2.99935 11.6146 4.04102C12.6493 5.08268 13.1667 6.33963 13.1667 7.81185C13.1667 8.40907 13.0694 8.98546 12.875 9.54102C12.6806 10.0966 12.3889 10.6174 12 11.1035L17.5 16.5618L16.5833 17.4785ZM7.85417 11.8952C8.97917 11.8952 9.9375 11.4959 10.7292 10.6973C11.5208 9.89865 11.9167 8.93685 11.9167 7.81185C11.9167 6.68685 11.5208 5.72504 10.7292 4.92643C9.9375 4.12782 8.97917 3.72852 7.85417 3.72852C6.71528 3.72852 5.74653 4.12782 4.94792 4.92643C4.14931 5.72504 3.75 6.68685 3.75 7.81185C3.75 8.93685 4.14931 9.89865 4.94792 10.6973C5.74653 11.4959 6.71528 11.8952 7.85417 11.8952Z" fill="black"/>
  </symbol>
  <symbol id="logo48" width="48" height="48" viewBox="0 0 48 48">
    <circle cx="24" cy="24" r="24" fill="#FFF8F0"/>
     <circle r="24" stroke-width="1" stroke="#00000" fill="none" cy="24" cx="24"></circle>
    <path d="M24 0C10.7669 0 0 10.7669 0 24C0 37.2331 10.7669 48 24 48C37.2331 48 48 37.2331 48 24C48.01 10.7669 37.2431 0 24 0ZM24 46.7068C11.4787 46.7068 1.29323 36.5213 1.29323 24C1.29323 19.5088 2.60652 15.3083 4.87218 11.7794H5.91479H14.3759V17.6441L14.386 28.01C14.386 38.9073 21.2732 41.0827 26.807 41.0827C32.3509 41.0827 34.3158 39.4787 35.9198 37.6642C37.6241 35.7293 38.4662 32.2607 38.4662 28.3409V24.1604H37.1629V26.2857V27.4286C37.1629 33.1328 36.2406 35.208 35.0777 36.6316C33.6341 38.396 31.5188 39.7895 28.1203 39.7895C24.5414 39.7895 22.8371 38.3358 21.5439 36.5313C19.8797 34.2055 19.589 31.3283 19.589 27.4286V26.2857V24.1604C19.589 21.6541 19.589 18.6667 19.589 17.6441V11.7895H38.4762V10.4862H19.589H14.3759H5.91479H5.77444C9.91479 4.91228 16.5414 1.29323 24 1.29323C36.5213 1.29323 46.7068 11.4787 46.7068 24C46.7068 36.5213 36.5213 46.7068 24 46.7068Z" fill="#00000"/>
  </symbol>
 <symbol id="logoheader" width="390" height="60" viewBox="0 0 390 60">
  <path d="M26.1692 0.00402832H62.2999V2.54781H26.1692V26.7874V33.2206C26.1692 40.8519 26.7216 46.5056 29.9261 51.0658C32.4079 54.5984 35.6502 57.4602 42.5094 57.4602C49.3685 57.4602 53.0573 54.738 55.8191 51.2752C58.0588 48.4833 59.8181 44.4194 59.8181 33.2167V26.8223H62.2999V35.0198C62.2999 42.7249 60.6807 49.507 57.4384 53.2878C54.3701 56.8553 50.6133 60.0001 39.9935 60.0001C29.3737 60.0001 16.204 55.723 16.204 34.3451V2.54781H0V0.00402832H26.1692V0.00402832Z" fill="black"/>
  <path d="M381.275 56.1882L365.691 29.366H365.105C371.31 29.366 375.551 28.4819 378.793 26.9618C384.309 24.3831 386.273 19.9315 386.273 14.7004C386.273 9.46939 384.309 4.98287 378.793 2.40418C375.551 0.884119 371.313 0 365.071 0H327.699V2.54378H337.664V56.1882H327.699V58.7319H389.999V56.1882H381.275V56.1882ZM347.626 2.54766C354.833 2.54766 361.59 2.54766 363.209 2.58256C366.346 2.58256 369.486 3.25341 371.31 4.3508C375.138 6.64641 376.307 10.2178 376.307 14.7043C376.307 19.1908 375.134 22.7622 371.31 25.0578C369.482 26.1513 366.346 26.8261 363.209 26.8261H347.626V2.55154V2.54766ZM347.626 56.1882V29.366H355.106L370.689 56.1882H347.626V56.1882Z" fill="black"/>
  <path d="M127.112 0.00378418H68.5391V2.54757H78.5043V56.1881H68.5391V58.7319H127.078V29.3659H124.597V40.8517C124.597 56.1532 119.599 56.1881 104.67 56.1881H88.4999V29.3659H117.151V26.8221H88.4999V2.54757H124.631V26.8221H127.112V2.54757V0.00378418V0.00378418Z" fill="black"/>
  <path d="M262.918 0.00378418V2.54757H272.883V56.1881H262.918V58.7319H321.457V29.3659H318.975V56.1881H282.845V29.3659H311.496V26.8221H282.845V2.54757H299.015C313.944 2.54757 318.941 2.58247 318.941 17.884V26.826H321.423V0.00378418H262.918Z" fill="black"/>
  <path d="M254.199 40.8866C254.199 56.1881 249.201 56.223 234.272 56.223H218.103V2.54757H230.55V0.00378418H198.176V2.54757H208.141V56.1881H198.176V58.7319H256.715V26.8221H254.233C254.199 26.8221 254.199 39.6845 254.199 40.8866V40.8866Z" fill="black"/>
  <path d="M189.416 56.1881H153.247V2.54757H165.694V0.00378418H153.247H143.286H133.32V2.54757H143.286V56.1881H133.32V58.7319H143.286H153.247H189.382H191.863V56.1881V26.8221H189.382V56.1881H189.416Z" fill="black"/>
  </symbol>
  <symbol id="logofooter" width="120" height="120" viewBox="0 0 120 120">
      <path d="M60 0C26.9173 0 0 26.9173 0 60C0 93.0827 26.9173 120 60 120C93.0827 120 120 93.0827 120 60C120.025 26.9173 93.1078 0 60 0ZM60 116.767C28.6967 116.767 3.23308 91.3033 3.23308 60C3.23308 48.7719 6.51629 38.2707 12.1804 29.4486H14.787H35.9398V44.1103L35.9649 70.0251C35.9649 97.2682 53.1829 102.707 67.0175 102.707C80.8772 102.707 85.7895 98.6967 89.7995 94.1604C94.0601 89.3233 96.1654 80.6516 96.1654 70.8521V60.401H92.9073V65.7143V68.5714C92.9073 82.8321 90.6015 88.02 87.6942 91.5789C84.0852 95.99 78.797 99.4737 70.3007 99.4737C61.3534 99.4737 57.0927 95.8396 53.8596 91.3283C49.6992 85.5138 48.9724 78.3208 48.9724 68.5714V65.7143V60.401C48.9724 54.1353 48.9724 46.6667 48.9724 44.1103V29.4737H96.1905V26.2155H48.9724H35.9398H14.787H14.4361C24.787 12.2807 41.3534 3.23308 60 3.23308C91.3032 3.23308 116.767 28.6967 116.767 60C116.767 91.3033 91.3032 116.767 60 116.767Z" fill="#FFF8F0"/>
  </symbol>
  <symbol id="test">
  </symbol>
</svg>
