<svg width="24" height="24" viewBox="0 0 24 24" fill="none" xmlns="http://www.w3.org/2000/svg">
<path d="M12 24C18.6274 24 24 18.6274 24 12C24 5.37258 18.6274 0 12 0C5.37258 0 0 5.37258 0 12C0 18.6274 5.37258 24 12 24Z" fill="#605E5B"/>
<path d="M9.10093 5.04896C8.35613 5.0841 7.8475 5.20296 7.40286 5.37768C6.94267 5.55702 6.55263 5.79768 6.16454 6.18716C5.77646 6.57664 5.53748 6.96696 5.35939 7.42784C5.18705 7.87347 5.07029 8.38251 5.03739 9.12773C5.00449 9.87295 4.99721 10.1125 5.00085 12.0134C5.00449 13.9143 5.01289 14.1526 5.04901 14.8994C5.08457 15.6441 5.20301 16.1525 5.37774 16.5973C5.55736 17.0575 5.79774 17.4474 6.18736 17.8356C6.57699 18.2238 6.96703 18.4623 7.42904 18.6406C7.87424 18.8127 8.38343 18.93 9.12851 18.9626C9.8736 18.9952 10.1134 19.0028 12.0138 18.9992C13.9142 18.9955 14.1534 18.9871 14.9001 18.9517C15.6467 18.9163 16.1525 18.797 16.5974 18.6231C17.0576 18.4431 17.4478 18.2031 17.8358 17.8134C18.2237 17.4236 18.4625 17.033 18.6405 16.5718C18.813 16.1266 18.9302 15.6175 18.9625 14.8729C18.9951 14.1257 19.0028 13.8872 18.9992 11.9865C18.9955 10.0859 18.987 9.84761 18.9516 9.10113C18.9162 8.35465 18.7976 7.84771 18.623 7.40264C18.4431 6.94246 18.203 6.55284 17.8135 6.16434C17.424 5.77584 17.0331 5.53714 16.5721 5.35962C16.1266 5.18728 15.6177 5.06982 14.8726 5.03762C14.1275 5.00542 13.8877 4.99716 11.9866 5.0008C10.0856 5.00444 9.84756 5.01256 9.10093 5.04896ZM9.18269 17.7033C8.50019 17.6736 8.1296 17.5602 7.88264 17.4653C7.5556 17.3393 7.32263 17.187 7.07651 16.9433C6.83039 16.6995 6.67919 16.4657 6.55151 16.1394C6.45561 15.8924 6.3401 15.5223 6.30818 14.8398C6.27346 14.1021 6.26618 13.8806 6.26212 12.0117C6.25806 10.1429 6.2652 9.92167 6.29754 9.18373C6.32666 8.50179 6.44077 8.13079 6.53555 7.88397C6.66155 7.55651 6.81331 7.32396 7.05761 7.07798C7.30191 6.832 7.53502 6.68052 7.86164 6.55284C8.10832 6.45652 8.47849 6.342 9.16071 6.30952C9.89894 6.27452 10.1201 6.26752 11.9887 6.26346C13.8573 6.2594 14.0791 6.2664 14.8176 6.29888C15.4996 6.32856 15.8707 6.44154 16.1172 6.53688C16.4444 6.66288 16.6772 6.81422 16.9232 7.05894C17.1692 7.30366 17.3208 7.53593 17.4485 7.86325C17.545 8.10923 17.6595 8.47925 17.6917 9.16189C17.7268 9.90011 17.7348 10.1215 17.7382 11.9899C17.7415 13.8583 17.735 14.0802 17.7026 14.8179C17.6728 15.5004 17.5597 15.8711 17.4646 16.1184C17.3386 16.4453 17.1867 16.6784 16.9423 16.9242C16.6978 17.1701 16.465 17.3215 16.1382 17.4492C15.8918 17.5454 15.5213 17.6602 14.8396 17.6927C14.1014 17.7274 13.8802 17.7347 12.0109 17.7387C10.1416 17.7428 9.92106 17.7352 9.18283 17.7033H9.18269ZM14.8893 8.25875C14.8896 8.4249 14.9391 8.58723 15.0317 8.72522C15.1242 8.86321 15.2556 8.97066 15.4092 9.03397C15.5628 9.09728 15.7318 9.11362 15.8947 9.08091C16.0576 9.04821 16.2071 8.96793 16.3244 8.85023C16.4416 8.73253 16.5214 8.58269 16.5535 8.41968C16.5856 8.25666 16.5686 8.08778 16.5047 7.9344C16.4409 7.78103 16.3329 7.65003 16.1946 7.558C16.0563 7.46596 15.8938 7.41701 15.7276 7.41734C15.5049 7.41779 15.2914 7.50668 15.1342 7.66446C14.977 7.82225 14.8889 8.03601 14.8893 8.25875ZM8.40583 12.007C8.40975 13.9922 10.022 15.5979 12.0068 15.5941C13.9916 15.5903 15.5984 13.9782 15.5946 11.993C15.5908 10.0078 13.9782 8.40169 11.9931 8.40561C10.008 8.40953 8.40205 10.0221 8.40583 12.007ZM9.66668 12.0045C9.66577 11.543 9.80172 11.0916 10.0574 10.7073C10.313 10.3231 10.6768 10.0233 11.1029 9.84585C11.5289 9.6684 11.998 9.62126 12.4508 9.7104C12.9036 9.79953 13.3198 10.0209 13.6468 10.3466C13.9738 10.6723 14.1968 11.0876 14.2877 11.5401C14.3787 11.9925 14.3334 12.4618 14.1576 12.8885C13.9819 13.3152 13.6835 13.6803 13.3003 13.9374C12.9171 14.1946 12.4662 14.3323 12.0047 14.3332C11.6983 14.3339 11.3947 14.2741 11.1114 14.1575C10.828 14.0408 10.5704 13.8694 10.3533 13.6531C10.1362 13.4369 9.9638 13.18 9.84599 12.8971C9.72818 12.6142 9.66725 12.3109 9.66668 12.0045Z" fill="#FFF8F0"/>
</svg>
