<svg width="120" height="120" viewBox="0 0 120 120" fill="none" xmlns="http://www.w3.org/2000/svg">
<path d="M60 0C26.9173 0 0 26.9173 0 60C0 93.0827 26.9173 120 60 120C93.0827 120 120 93.0827 120 60C120.025 26.9173 93.1078 0 60 0ZM60 116.767C28.6967 116.767 3.23308 91.3033 3.23308 60C3.23308 48.7719 6.51629 38.2707 12.1804 29.4486H14.787H35.9398V44.1103L35.9649 70.0251C35.9649 97.2682 53.1829 102.707 67.0175 102.707C80.8772 102.707 85.7895 98.6967 89.7995 94.1604C94.0601 89.3233 96.1654 80.6516 96.1654 70.8521V60.401H92.9073V65.7143V68.5714C92.9073 82.8321 90.6015 88.02 87.6942 91.5789C84.0852 95.99 78.797 99.4737 70.3007 99.4737C61.3534 99.4737 57.0927 95.8396 53.8596 91.3283C49.6992 85.5138 48.9724 78.3208 48.9724 68.5714V65.7143V60.401C48.9724 54.1353 48.9724 46.6667 48.9724 44.1103V29.4737H96.1905V26.2155H48.9724H35.9398H14.787H14.4361C24.787 12.2807 41.3534 3.23308 60 3.23308C91.3032 3.23308 116.767 28.6967 116.767 60C116.767 91.3033 91.3032 116.767 60 116.767Z" fill="#FFF8F0"/>
</svg>
