<svg width="48" height="48" viewBox="0 0 48 48" fill="none" xmlns="http://www.w3.org/2000/svg">
<circle cx="24" cy="24" r="24" fill="#FFF8F0"/>

<path d="M24 0C10.7669 0 0 10.7669 0 24C0 37.2331 10.7669 48 24 48C37.2331 48 48 37.2331 48 24C48.01 10.7669 37.2431 0 24 0ZM24 46.7068C11.4787 46.7068 1.29323 36.5213 1.29323 24C1.29323 19.5088 2.60652 15.3083 4.87218 11.7794H5.91479H14.3759V17.6441L14.386 28.01C14.386 38.9073 21.2732 41.0827 26.807 41.0827C32.3509 41.0827 34.3158 39.4787 35.9198 37.6642C37.6241 35.7293 38.4662 32.2607 38.4662 28.3409V24.1604H37.1629V26.2857V27.4286C37.1629 33.1328 36.2406 35.208 35.0777 36.6316C33.6341 38.396 31.5188 39.7895 28.1203 39.7895C24.5414 39.7895 22.8371 38.3358 21.5439 36.5313C19.8797 34.2055 19.589 31.3283 19.589 27.4286V26.2857V24.1604C19.589 21.6541 19.589 18.6667 19.589 17.6441V11.7895H38.4762V10.4862H19.589H14.3759H5.91479H5.77444C9.91479 4.91228 16.5414 1.29323 24 1.29323C36.5213 1.29323 46.7068 11.4787 46.7068 24C46.7068 36.5213 36.5213 46.7068 24 46.7068Z" fill="black"/>
</svg>
