<svg width="390" height="60" viewBox="0 0 390 60" fill="none" xmlns="http://www.w3.org/2000/svg">
<path d="M26.1692 0.00402832H62.2999V2.54781H26.1692V26.7874V33.2206C26.1692 40.8519 26.7216 46.5056 29.9261 51.0658C32.4079 54.5984 35.6502 57.4602 42.5094 57.4602C49.3685 57.4602 53.0573 54.738 55.8191 51.2752C58.0588 48.4833 59.8181 44.4194 59.8181 33.2167V26.8223H62.2999V35.0198C62.2999 42.7249 60.6807 49.507 57.4384 53.2878C54.3701 56.8553 50.6133 60.0001 39.9935 60.0001C29.3737 60.0001 16.204 55.723 16.204 34.3451V2.54781H0V0.00402832H26.1692V0.00402832Z" fill="black"/>
<path d="M381.275 56.1882L365.691 29.366H365.105C371.31 29.366 375.551 28.4819 378.793 26.9618C384.309 24.3831 386.273 19.9315 386.273 14.7004C386.273 9.46939 384.309 4.98287 378.793 2.40418C375.551 0.884119 371.313 0 365.071 0H327.699V2.54378H337.664V56.1882H327.699V58.7319H389.999V56.1882H381.275V56.1882ZM347.626 2.54766C354.833 2.54766 361.59 2.54766 363.209 2.58256C366.346 2.58256 369.486 3.25341 371.31 4.3508C375.138 6.64641 376.307 10.2178 376.307 14.7043C376.307 19.1908 375.134 22.7622 371.31 25.0578C369.482 26.1513 366.346 26.8261 363.209 26.8261H347.626V2.55154V2.54766ZM347.626 56.1882V29.366H355.106L370.689 56.1882H347.626V56.1882Z" fill="black"/>
<path d="M127.112 0.00378418H68.5391V2.54757H78.5043V56.1881H68.5391V58.7319H127.078V29.3659H124.597V40.8517C124.597 56.1532 119.599 56.1881 104.67 56.1881H88.4999V29.3659H117.151V26.8221H88.4999V2.54757H124.631V26.8221H127.112V2.54757V0.00378418V0.00378418Z" fill="black"/>
<path d="M262.918 0.00378418V2.54757H272.883V56.1881H262.918V58.7319H321.457V29.3659H318.975V56.1881H282.845V29.3659H311.496V26.8221H282.845V2.54757H299.015C313.944 2.54757 318.941 2.58247 318.941 17.884V26.826H321.423V0.00378418H262.918Z" fill="black"/>
<path d="M254.199 40.8866C254.199 56.1881 249.201 56.223 234.272 56.223H218.103V2.54757H230.55V0.00378418H198.176V2.54757H208.141V56.1881H198.176V58.7319H256.715V26.8221H254.233C254.199 26.8221 254.199 39.6845 254.199 40.8866V40.8866Z" fill="black"/>
<path d="M189.416 56.1881H153.247V2.54757H165.694V0.00378418H153.247H143.286H133.32V2.54757H143.286V56.1881H133.32V58.7319H143.286H153.247H189.382H191.863V56.1881V26.8221H189.382V56.1881H189.416Z" fill="black"/>
</svg>
