<svg width="383" height="383" viewBox="0 0 383 383" fill="none" xmlns="http://www.w3.org/2000/svg">
<circle cx="191.538" cy="191.754" r="189.083" transform="rotate(-0.472021 191.538 191.754)" fill="#FDF9F0"/>
<path d="M190.999 -0.000152588C86.2366 -0.000152588 0.998535 85.2379 0.998535 190C0.998535 294.762 86.2366 380 190.999 380C295.76 380 380.999 294.762 380.999 190C381.078 85.2379 295.84 -0.000152588 190.999 -0.000152588ZM190.999 369.762C91.8715 369.762 11.2366 289.127 11.2366 190C11.2366 154.444 21.6335 121.19 39.57 93.2538H47.8239H114.808V139.682L114.887 221.746C114.887 308.016 169.411 325.238 213.221 325.238C257.11 325.238 272.665 312.54 285.364 298.174C298.856 282.857 305.522 255.397 305.522 224.365V191.27H295.205V208.095V217.143C295.205 262.301 287.903 278.73 278.697 290C267.268 303.968 250.522 315 223.618 315C195.284 315 181.792 303.492 171.554 289.206C158.379 270.794 156.078 248.016 156.078 217.143V208.095V191.27C156.078 171.428 156.078 147.778 156.078 139.682V93.3332H305.602V83.0157H156.078H114.808H47.8239H46.7128C79.4906 38.8887 131.951 10.2379 190.999 10.2379C290.126 10.2379 370.76 90.8729 370.76 190C370.76 289.127 290.126 369.762 190.999 369.762Z" fill="#222121"/>
</svg>
