<svg width="25" height="25" viewBox="0 0 25 25" fill="none" xmlns="http://www.w3.org/2000/svg">
<path d="M19.1503 19.4268L13.6467 14.182C13.2316 14.531 12.7468 14.8035 12.1921 14.9996C11.6375 15.1956 11.0476 15.295 10.4226 15.2976C8.92266 15.3041 7.64951 14.8088 6.6032 13.8117C5.55688 12.8145 5.03043 11.6082 5.02385 10.1926C5.01727 8.77702 5.53247 7.56619 6.56947 6.56012C7.60647 5.55405 8.86802 5.04782 10.3541 5.04143C11.8263 5.0351 13.0821 5.53051 14.1215 6.52765C15.1608 7.52479 15.6838 8.73116 15.6904 10.1467C15.6931 10.721 15.5984 11.2756 15.4065 11.8106C15.2145 12.3457 14.9252 12.8477 14.5385 13.3168L20.0628 18.5415L19.1503 19.4268ZM10.3962 14.0958C11.5212 14.091 12.4777 13.7029 13.2658 12.9316C14.0539 12.1603 14.4455 11.2338 14.4404 10.1521C14.4354 9.0704 14.0353 8.1473 13.24 7.38281C12.4448 6.61833 11.4847 6.2385 10.3597 6.24334C9.22083 6.24824 8.25387 6.63635 7.45884 7.40767C6.66381 8.17899 6.26881 9.10551 6.27384 10.1872C6.27887 11.269 6.68247 12.192 7.48464 12.9565C8.28682 13.7209 9.25735 14.1007 10.3962 14.0958Z" fill="black"/>
</svg>
