<svg width="33" height="34" viewBox="0 0 33 34" fill="none" xmlns="http://www.w3.org/2000/svg">
<path d="M27.3625 29.7144L18.3219 20.3998C17.6344 21.0137 16.8323 21.4918 15.9156 21.8341C14.999 22.1765 14.025 22.3477 12.9937 22.3477C10.5187 22.3477 8.42188 21.4623 6.70312 19.6914C4.98438 17.9206 4.125 15.7838 4.125 13.281C4.125 10.7782 4.98438 8.64144 6.70312 6.87061C8.42188 5.09977 10.5073 4.21436 12.9594 4.21436C15.3885 4.21436 17.4568 5.09977 19.1641 6.87061C20.8714 8.64144 21.725 10.7782 21.725 13.281C21.725 14.2963 21.5646 15.2762 21.2437 16.2206C20.9229 17.1651 20.4417 18.0505 19.8 18.8769L28.875 28.156L27.3625 29.7144ZM12.9594 20.2227C14.8156 20.2227 16.3969 19.5439 17.7031 18.1862C19.0094 16.8286 19.6625 15.1935 19.6625 13.281C19.6625 11.3685 19.0094 9.73345 17.7031 8.37581C16.3969 7.01817 14.8156 6.33936 12.9594 6.33936C11.0802 6.33936 9.48177 7.01817 8.16406 8.37581C6.84635 9.73345 6.1875 11.3685 6.1875 13.281C6.1875 15.1935 6.84635 16.8286 8.16406 18.1862C9.48177 19.5439 11.0802 20.2227 12.9594 20.2227Z" fill="#FFF8F0"/>
</svg>
