<svg width="16" height="16" viewBox="0 0 16 16" fill="none" xmlns="http://www.w3.org/2000/svg">
<path d="M14.5833 15.479L9.10417 9.99984C8.6875 10.3609 8.20139 10.6422 7.64583 10.8436C7.09028 11.045 6.5 11.1457 5.875 11.1457C4.375 11.1457 3.10417 10.6248 2.0625 9.58317C1.02083 8.5415 0.5 7.28456 0.5 5.81234C0.5 4.34012 1.02083 3.08317 2.0625 2.0415C3.10417 0.999837 4.36806 0.479004 5.85417 0.479004C7.32639 0.479004 8.57986 0.999837 9.61458 2.0415C10.6493 3.08317 11.1667 4.34012 11.1667 5.81234C11.1667 6.40956 11.0694 6.98595 10.875 7.5415C10.6806 8.09706 10.3889 8.61789 10 9.104L15.5 14.5623L14.5833 15.479ZM5.85417 9.89567C6.97917 9.89567 7.9375 9.49636 8.72917 8.69775C9.52083 7.89914 9.91667 6.93734 9.91667 5.81234C9.91667 4.68734 9.52083 3.72553 8.72917 2.92692C7.9375 2.12831 6.97917 1.729 5.85417 1.729C4.71528 1.729 3.74653 2.12831 2.94792 2.92692C2.14931 3.72553 1.75 4.68734 1.75 5.81234C1.75 6.93734 2.14931 7.89914 2.94792 8.69775C3.74653 9.49636 4.71528 9.89567 5.85417 9.89567Z" fill="black"/>
</svg>
