<svg width="28" height="28" viewBox="0 0 28 28" fill="none" xmlns="http://www.w3.org/2000/svg">
<path d="M23.2167 24.4709L15.5458 16.8001C14.9625 17.3057 14.2819 17.6994 13.5042 17.9814C12.7264 18.2633 11.9 18.4043 11.025 18.4043C8.925 18.4043 7.14583 17.6751 5.6875 16.2168C4.22917 14.7584 3.5 12.9987 3.5 10.9376C3.5 8.8765 4.22917 7.11678 5.6875 5.65845C7.14583 4.20011 8.91528 3.47095 10.9958 3.47095C13.0569 3.47095 14.8118 4.20011 16.2604 5.65845C17.709 7.11678 18.4333 8.8765 18.4333 10.9376C18.4333 11.7737 18.2972 12.5807 18.025 13.3584C17.7528 14.1362 17.3444 14.8654 16.8 15.5459L24.5 23.1876L23.2167 24.4709ZM10.9958 16.6543C12.5708 16.6543 13.9125 16.0953 15.0208 14.9772C16.1292 13.8591 16.6833 12.5126 16.6833 10.9376C16.6833 9.36261 16.1292 8.01609 15.0208 6.89803C13.9125 5.77997 12.5708 5.22095 10.9958 5.22095C9.40139 5.22095 8.04514 5.77997 6.92708 6.89803C5.80903 8.01609 5.25 9.36261 5.25 10.9376C5.25 12.5126 5.80903 13.8591 6.92708 14.9772C8.04514 16.0953 9.40139 16.6543 10.9958 16.6543Z" fill="#FFF8F0"/>
</svg>
