<svg width="25" height="25" viewBox="0 0 25 25" fill="none" xmlns="http://www.w3.org/2000/svg">
<path d="M12.5 25C19.4036 25 25 19.4036 25 12.5C25 5.59644 19.4036 0 12.5 0C5.59644 0 0 5.59644 0 12.5C0 19.4036 5.59644 25 12.5 25Z" fill="#424242"/>
<path fill-rule="evenodd" clip-rule="evenodd" d="M5.65831 12.368C9.30231 10.7804 11.7322 9.73375 12.948 9.22805C16.4194 7.78418 17.1407 7.53336 17.6109 7.52508C17.7143 7.52326 17.9455 7.54889 18.0953 7.67041C18.2217 7.77302 18.2565 7.91164 18.2732 8.00893C18.2898 8.10621 18.3105 8.32784 18.2941 8.50101C18.1059 10.4776 17.292 15.2741 16.8779 17.4879C16.7026 18.4246 16.3576 18.7387 16.0236 18.7694C15.2977 18.8362 14.7465 18.2897 14.0434 17.8288C12.9433 17.1077 12.3217 16.6587 11.2538 15.955C10.0197 15.1417 10.8198 14.6947 11.5231 13.9642C11.7071 13.773 14.9055 10.8639 14.9674 10.6C14.9751 10.567 14.9823 10.444 14.9092 10.379C14.8361 10.314 14.7283 10.3363 14.6504 10.3539C14.5401 10.379 12.7825 11.5406 9.37784 13.8389C8.87897 14.1815 8.42711 14.3484 8.02226 14.3396C7.57595 14.33 6.71742 14.0873 6.07919 13.8798C5.29637 13.6253 4.67421 13.4908 4.72839 13.0587C4.7566 12.8336 5.06658 12.6034 5.65831 12.368Z" fill="white"/>
</svg>
