<svg width="24" height="24" viewBox="0 0 24 24" fill="none" xmlns="http://www.w3.org/2000/svg">
<path d="M12 24C18.6274 24 24 18.6274 24 12C24 5.37258 18.6274 0 12 0C5.37258 0 0 5.37258 0 12C0 18.6274 5.37258 24 12 24Z" fill="#605E5B"/>
<path d="M12.77 17.2898C7.3 17.2898 4.18005 13.5398 4.05005 7.2998H6.79005C6.88005 11.8798 8.9 13.8198 10.5 14.2198V7.2998H13.0801V11.2498C14.6601 11.0798 16.3199 9.2798 16.8799 7.2998H19.4599C19.0299 9.7398 17.2299 11.5398 15.9499 12.2798C17.2299 12.8798 19.28 14.4498 20.06 17.2898H17.2199C16.6099 15.3898 15.0901 13.9198 13.0801 13.7198V17.2898H12.77Z" fill="#FFF8F0"/>
</svg>
