<svg width="24" height="24" viewBox="0 0 24 24" fill="none" xmlns="http://www.w3.org/2000/svg">
<path d="M12 24C18.6274 24 24 18.6274 24 12C24 5.37258 18.6274 0 12 0C5.37258 0 0 5.37258 0 12C0 18.6274 5.37258 24 12 24Z" fill="#605E5B"/>
<path d="M18.7084 8.53507C18.6285 8.23849 18.4721 7.96809 18.2549 7.75089C18.0377 7.53369 17.7673 7.3773 17.4707 7.29733C16.3782 7 12 7 12 7C12 7 7.62068 7 6.53046 7.29272C6.23322 7.37288 5.96234 7.52989 5.74506 7.74798C5.52778 7.96607 5.37177 8.23754 5.29272 8.53507C5 9.62644 5 11.9048 5 11.9048C5 11.9048 5 14.1832 5.29272 15.2746C5.37248 15.5713 5.5288 15.8418 5.74603 16.059C5.96327 16.2763 6.23378 16.4326 6.53046 16.5123C7.62183 16.8051 12 16.8051 12 16.8051C12 16.8051 16.3793 16.8051 17.4707 16.5123C17.7673 16.4324 18.0377 16.276 18.2549 16.0588C18.4721 15.8416 18.6285 15.5712 18.7084 15.2746C19 14.1832 19 11.9048 19 11.9048C19 11.9048 18.9965 9.62644 18.7084 8.53507ZM10.5998 14.0046V9.80507L14.2369 11.9048L10.5998 14.0046Z" fill="#FFF8F0"/>
</svg>
